<?xml version="1.0" standalone="no"?>
<!DOCTYPE svg PUBLIC "-//W3C//DTD SVG 20010904//EN"
 "http://www.w3.org/TR/2001/REC-SVG-20010904/DTD/svg10.dtd">
<svg version="1.0" xmlns="http://www.w3.org/2000/svg"
 width="960.000000pt" height="960.000000pt" viewBox="0 0 960.000000 960.000000"
 preserveAspectRatio="xMidYMid meet">
<metadata>
Created by potrace 1.11, written by Peter Selinger 2001-2013
</metadata>
<g transform="translate(0.000000,960.000000) scale(0.100000,-0.100000)"
fill="#000000" stroke="none">
<path d="M4770 4395 c0 -8 2 -15 4 -15 2 0 6 7 10 15 3 8 1 15 -4 15 -6 0 -10
-7 -10 -15z"/>
<path d="M4806 4398 c3 -4 9 -8 15 -8 5 0 9 4 9 8 0 5 -7 9 -15 9 -8 0 -12 -4
-9 -9z"/>
<path d="M4847 4399 c7 -7 15 -10 18 -7 3 3 -2 9 -12 12 -14 6 -15 5 -6 -5z"/>
<path d="M4790 4381 c0 -5 5 -13 10 -16 6 -3 10 -2 10 4 0 5 -4 13 -10 16 -5
3 -10 2 -10 -4z"/>
<path d="M4752 4370 c2 -11 -7 -15 -35 -15 -20 0 -37 -4 -37 -9 0 -4 -7 -6
-15 -3 -8 4 -17 1 -21 -5 -4 -6 -3 -9 2 -5 5 3 18 -1 29 -9 16 -12 16 -14 2
-14 -9 0 -14 -6 -11 -13 3 -9 -6 -12 -37 -9 -28 3 -44 0 -50 -9 -6 -10 -9 -11
-9 -1 0 6 -6 12 -14 12 -10 0 -13 -8 -10 -25 6 -36 -3 -47 -28 -34 -11 6 -18
7 -15 2 4 -5 -13 -10 -36 -11 -23 -1 -50 -2 -59 -3 -9 0 -19 -7 -22 -16 -5
-13 -4 -14 9 -3 12 10 15 10 15 0 0 -9 8 -7 23 6 22 19 22 19 4 -2 -9 -11 -14
-24 -10 -29 5 -4 2 -5 -4 -1 -8 4 -13 2 -13 -5 0 -7 -10 -9 -30 -5 -16 3 -30
2 -30 -2 0 -5 -15 -6 -34 -4 -32 4 -33 2 -28 -23 6 -35 -5 -41 -80 -39 -35 0
-58 -1 -51 -3 9 -3 9 -12 2 -30 -8 -21 -7 -24 6 -19 9 3 13 2 10 -4 -3 -6 -15
-10 -26 -10 -14 0 -18 4 -13 13 5 7 0 6 -11 -3 -17 -13 -18 -13 -10 0 8 13 7
13 -9 1 -10 -8 -35 -15 -57 -15 -21 0 -39 -4 -39 -8 0 -4 6 -8 14 -8 8 0 18
-4 21 -10 3 -5 0 -7 -8 -4 -8 3 -18 0 -23 -7 -4 -7 -3 -10 2 -6 6 3 16 2 24
-4 11 -6 8 -9 -12 -9 -14 0 -29 6 -31 13 -4 10 -6 10 -6 0 -1 -7 -8 -13 -17
-13 -8 0 -13 -4 -10 -8 2 -4 -5 -9 -17 -9 -17 -2 -19 0 -7 7 11 7 6 9 -16 7
-22 -1 -31 -7 -29 -17 2 -8 4 -19 4 -24 1 -5 7 -3 15 3 12 10 14 9 12 -5 -2
-11 -13 -18 -34 -19 -22 -2 -29 1 -25 9 4 6 -6 3 -21 -8 -17 -11 -25 -13 -20
-5 6 11 4 11 -10 0 -15 -13 -19 -13 -26 0 -8 12 -11 12 -22 0 -11 -11 -11 -13
1 -6 11 6 13 4 8 -9 -4 -11 -3 -15 4 -10 8 4 7 0 0 -15 -9 -15 -19 -20 -36
-17 -13 2 -33 2 -45 -1 -19 -5 -20 -6 -3 -20 12 -10 9 -10 -10 1 -35 21 -44
15 -40 -26 1 -18 0 -27 -3 -20 -4 9 -9 10 -19 2 -9 -8 -15 -8 -20 0 -3 5 -1
10 6 10 7 0 9 3 6 7 -4 3 -16 -3 -27 -15 -12 -12 -26 -22 -33 -22 -8 0 -7 4 3
10 10 6 5 9 -18 8 -26 -1 -30 -4 -21 -15 9 -10 8 -17 -2 -30 -12 -15 -12 -16
4 -10 11 4 16 3 12 -3 -3 -6 -15 -10 -26 -10 -14 0 -18 4 -13 13 5 7 0 6 -11
-3 -17 -13 -18 -13 -10 0 8 13 7 13 -9 1 -10 -8 -35 -15 -57 -15 -21 0 -39 -4
-39 -8 0 -4 6 -8 14 -8 8 0 18 -4 21 -10 3 -5 0 -7 -8 -4 -8 3 -18 0 -23 -7
-4 -7 -3 -10 2 -6 6 3 16 2 24 -4 11 -6 8 -9 -12 -9 -14 0 -29 6 -31 13 -4 10
-6 10 -6 0 -1 -7 -8 -13 -17 -13 -8 0 -13 -4 -10 -8 2 -4 -5 -9 -17 -9 -17 -2
-19 0 -7 7 11 7 6 9 -16 7 -22 -1 -31 -7 -29 -17 2 -8 4 -19 4 -24 1 -5 7 -3
15 3 12 10 14 9 12 -5 -2 -11 -13 -18 -34 -19 -22 -2 -29 1 -25 9 4 6 -6 3
-21 -8 -17 -11 -25 -13 -20 -5 6 11 4 11 -10 0 -15 -13 -19 -13 -26 0 -8 12
-11 12 -22 0 -11 -11 -11 -13 1 -6 11 6 13 4 8 -9 -4 -11 -3 -15 4 -10 8 4 7
0 0 -15 -9 -15 -19 -20 -36 -17 -13 2 -33 2 -45 -1 -19 -5 -20 -6 -3 -20 12
-10 9 -10 -10 1 -35 21 -44 15 -40 -26 1 -18 0 -27 -3 -20 -4 9 -9 10 -19 2
-9 -8 -15 -8 -20 0 -3 5 -1 10 6 10 7 0 9 3 6 7 -4 3 -16 -3 -27 -15 -12 -12
-26 -22 -33 -22 -7 0 -6 4 3 10 12 8 9 9 -11 8 -21 -2 -26 -7 -26 -30 0 -15 5
-24 10 -21 6 3 7 2 4 -4 -3 -5 -36 -9 -72 -9 -36 1 -65 -3 -65 -8 0 -4 -7 -6
-15 -3 -8 4 -17 1 -21 -5 -4 -6 -3 -9 2 -5 5 3 18 -1 29 -9 16 -12 16 -14 2
-14 -9 0 -14 -6 -11 -13 3 -9 -6 -12 -37 -9 -28 3 -44 0 -50 -9 -6 -10 -9 -11
-9 -1 0 6 -6 12 -14 12 -10 0 -13 -8 -10 -25 6 -36 -3 -47 -28 -34 -11 6 -18
7 -15 2 4 -5 -13 -10 -36 -11 -23 -1 -50 -2 -59 -3 -9 0 -19 -7 -22 -16 -5
-13 -4 -14 9 -3 12 10 15 10 15 0 0 -9 8 -7 23 6 22 19 22 19 4 -2 -9 -11 -14
-24 -10 -29 5 -4 2 -5 -4 -1 -8 4 -13 2 -13 -5 0 -7 -10 -9 -30 -5 -16 3 -30
2 -30 -2 0 -5 -15 -6 -33 -4 -33 4 -34 3 -29 -27 5 -33 1 -35 -50 -31 -20 1
-26 -3 -24 -17 2 -10 1 -12 -1 -5 -3 6 -9 13 -14 13 -32 5 -43 3 -46 -8 -3 -7
0 -13 5 -13 6 0 9 -8 7 -17 -2 -10 -4 -20 -4 -23 -1 -3 -6 2 -11 10 -6 10 -10
11 -10 3 0 -7 -5 -13 -11 -13 -5 0 -8 4 -5 9 4 5 -5 4 -18 -2 -13 -7 -22 -16
-19 -22 3 -5 0 -4 -8 3 -15 13 -55 16 -63 4 -2 -4 -1 -14 4 -22 7 -12 12 -12
22 -2 6 6 15 12 19 12 9 0 5 -27 -6 -37 -4 -4 -5 -2 -1 5 9 14 -10 17 -19 2
-4 -6 -12 -10 -18 -9 -34 4 -58 -2 -51 -13 5 -7 3 -8 -7 -2 -24 15 -49 14 -50
-1 -1 -8 -3 -19 -4 -25 -1 -5 -3 -14 -4 -18 0 -4 -28 -8 -60 -8 -33 1 -58 -1
-56 -4 2 -3 -2 -18 -9 -35 -10 -23 -19 -29 -42 -30 -20 0 -28 -4 -26 -15 2 -8
0 -11 -5 -7 -4 5 -8 13 -8 18 0 5 -3 9 -7 9 -5 0 -15 0 -24 0 -9 0 -14 -8 -13
-17 3 -37 -2 -49 -20 -49 -11 0 -17 4 -15 8 9 14 -14 8 -30 -8 -9 -8 -16 -11
-16 -6 0 5 -9 12 -20 15 -11 3 -18 1 -14 -4 3 -5 -2 -9 -10 -9 -12 0 -14 -8
-10 -32 4 -25 3 -29 -5 -18 -7 10 -11 11 -11 3 0 -7 -5 -13 -11 -13 -5 0 -8 4
-5 9 4 5 -5 4 -18 -2 -13 -7 -22 -16 -19 -22 3 -5 0 -4 -8 3 -15 13 -55 16
-63 4 -2 -4 -1 -14 4 -22 7 -12 12 -12 22 -2 6 6 15 12 19 12 9 0 5 -27 -6
-37 -4 -4 -5 -2 -1 5 9 14 -10 17 -19 2 -4 -6 -12 -10 -18 -9 -34 4 -58 -2
-51 -13 5 -7 3 -8 -7 -2 -24 15 -49 14 -50 -1 -1 -8 -3 -19 -4 -25 -1 -5 -3
-14 -4 -18 0 -4 -28 -8 -60 -8 -33 1 -58 -1 -56 -4 2 -3 -2 -18 -9 -35 -10
-23 -19 -29 -42 -30 -19 0 -28 -5 -26 -13 1 -8 -2 -11 -8 -7 -6 3 -8 10 -5 15
3 5 1 11 -5 15 -5 3 -10 2 -10 -3 0 -6 -8 -8 -18 -5 -11 2 -25 -4 -33 -14 -13
-16 -13 -17 4 -4 12 9 17 10 17 2 0 -7 6 -9 13 -6 6 4 5 1 -3 -7 -9 -7 -14
-22 -12 -33 4 -16 2 -17 -11 -7 -8 7 -21 10 -30 6 -17 -6 -17 -6 -17 -100 0
-12 6 -27 14 -33 9 -8 13 -7 13 4 0 8 -3 12 -7 10 -3 -2 -6 7 -6 20 0 13 5 21
11 19 5 -3 2 1 -7 8 -15 13 -15 15 0 26 9 7 11 10 3 6 -9 -5 -12 -3 -7 5 4 6
13 8 19 4 7 -4 6 0 -2 10 -17 21 -5 22 15 2 12 -12 12 -15 2 -15 -10 0 -9 -3
2 -10 12 -8 12 -10 1 -10 -9 0 -10 -4 -4 -12 11 -15 11 -48 0 -65 -5 -7 -4
-13 0 -13 5 0 9 -9 9 -19 0 -11 -4 -17 -8 -15 -10 6 -11 -10 -1 -20 14 -13 10
-33 -9 -57 -11 -13 -17 -18 -13 -11 4 7 1 20 -7 29 -11 14 -11 16 2 8 12 -6
13 -6 2 6 -11 12 -14 12 -22 -1 -10 -16 -3 -33 11 -25 5 4 9 1 9 -4 0 -6 -7
-11 -15 -11 -8 0 -15 -4 -15 -10 0 -5 7 -7 16 -3 15 6 15 4 0 -19 -14 -21 -14
-25 -1 -25 8 0 15 4 15 9 0 5 4 7 9 3 5 -3 13 0 17 6 4 7 3 9 -4 5 -6 -3 -13
-3 -16 2 -2 4 3 13 12 19 15 9 18 6 19 -26 2 -86 1 -83 33 -77 17 2 30 1 30
-3 0 -4 13 -6 29 -3 35 5 49 -13 28 -36 -17 -18 -24 -17 125 -26 15 -1 30 -4
34 -8 4 -4 -3 -6 -15 -3 -11 2 -21 0 -21 -6 0 -5 5 -9 10 -9 6 0 10 -5 10 -11
0 -5 -4 -8 -8 -5 -5 3 -9 -1 -9 -7 0 -9 12 -12 35 -10 20 1 42 -3 50 -10 12
-9 16 -9 19 0 3 9 10 10 22 3 10 -5 22 -6 26 -2 4 4 3 -3 -4 -15 -15 -29 -14
-46 2 -40 6 2 21 1 32 -3 11 -4 34 -4 51 0 25 6 31 5 27 -6 -3 -8 -10 -11 -16
-7 -6 3 -7 1 -3 -6 6 -9 11 -9 24 1 13 11 14 11 7 -1 -6 -11 -4 -13 9 -8 10 4
15 3 11 -3 -3 -6 -13 -10 -22 -10 -12 0 -13 -3 -3 -14 13 -17 43 -10 34 8 -3
6 0 4 8 -4 8 -9 31 -15 59 -15 34 0 45 -3 41 -13 -2 -7 -11 -11 -18 -8 -8 3
-14 1 -14 -5 0 -6 -5 -7 -12 -3 -6 4 -8 3 -5 -4 4 -5 17 -8 30 -5 18 4 19 3 7
-6 -8 -6 -13 -11 -10 -12 53 -10 59 -9 53 8 -5 17 -5 17 8 1 8 -9 29 -18 48
-20 19 -2 36 -9 39 -16 2 -7 -2 -10 -12 -6 -12 5 -15 2 -9 -12 5 -13 3 -15 -7
-9 -9 5 -11 4 -6 -3 5 -8 13 -9 25 -2 11 5 22 5 27 0 5 -5 33 -11 61 -12 29
-2 55 -7 59 -10 4 -4 -3 -6 -15 -3 -11 2 -21 0 -21 -6 0 -5 5 -9 10 -9 6 0 10
-5 10 -11 0 -5 -4 -8 -8 -5 -5 3 -9 -1 -9 -7 0 -9 12 -12 35 -10 20 1 42 -3
50 -10 12 -9 16 -9 19 0 3 9 10 10 22 3 10 -5 22 -6 26 -2 4 4 3 -3 -4 -15
-17 -33 -14 -40 21 -41 17 0 34 -6 38 -13 6 -8 9 -8 14 2 5 11 7 12 12 1 5
-10 9 -9 20 5 13 17 14 16 11 -7 -1 -14 3 -24 9 -23 7 1 10 -6 7 -20 -4 -18
-3 -19 6 -7 6 8 11 10 11 4 0 -6 19 -10 49 -9 46 2 48 1 49 -27 0 -18 -3 -26
-10 -22 -7 4 -8 2 -4 -4 10 -17 24 -15 29 6 4 16 5 16 6 0 0 -10 8 -18 16 -18
9 0 12 6 9 18 -5 16 -5 16 6 0 7 -12 24 -18 45 -18 25 0 37 -6 46 -21 6 -12 7
-19 1 -15 -5 3 -12 -1 -16 -9 -6 -16 0 -18 57 -15 21 1 37 -3 37 -9 0 -6 8
-11 18 -11 14 0 15 2 2 10 -13 8 -12 10 3 10 18 0 21 -8 11 -34 -3 -9 -11 -13
-18 -9 -8 4 -8 3 0 -6 6 -6 26 -13 45 -14 19 -1 37 -6 42 -12 4 -6 11 -4 17 5
6 9 13 11 18 5 4 -5 14 -10 22 -10 8 0 15 -7 15 -15 0 -8 5 -19 10 -23 6 -5 3
-7 -7 -3 -10 3 -18 1 -18 -5 0 -7 14 -10 35 -7 19 2 35 1 35 -2 0 -3 12 -6 28
-5 37 1 46 -16 19 -38 -13 -10 -16 -15 -6 -11 10 3 20 0 24 -5 3 -6 12 -8 18
-4 18 11 47 11 40 0 -4 -6 3 -8 16 -4 32 8 51 -2 51 -25 0 -13 -4 -17 -12 -12
-9 5 -8 2 1 -9 9 -12 23 -16 43 -13 15 2 28 1 28 -2 0 -4 22 -6 49 -6 l49 2
-30 -27 -29 -26 58 -3 c32 -2 60 -7 61 -12 2 -6 11 -10 20 -10 15 0 15 2 2 10
-13 8 -12 10 3 10 18 0 21 -8 11 -34 -3 -9 -11 -13 -18 -9 -8 4 -8 3 0 -6 6
-6 26 -13 45 -14 19 -1 37 -6 42 -12 4 -6 11 -4 17 5 6 9 13 11 18 5 4 -5 14
-10 22 -10 8 0 15 -7 15 -15 0 -8 5 -19 10 -23 6 -5 3 -7 -7 -3 -10 3 -18 1
-18 -5 0 -7 14 -10 35 -7 19 2 35 1 35 -2 0 -4 13 -6 29 -5 21 1 31 -4 34 -16
3 -12 13 -17 31 -15 14 2 26 -1 26 -6 0 -5 -18 -6 -39 -3 -22 3 -42 2 -44 -2
-6 -9 23 -13 100 -16 51 -2 64 -9 43 -22 -16 -10 -12 -25 8 -25 14 0 15 -2 2
-10 -12 -8 -10 -10 8 -10 16 0 21 4 16 13 -6 10 -4 10 7 0 7 -7 33 -13 58 -13
24 0 41 -3 38 -6 -3 -4 -1 -16 5 -28 11 -21 11 -21 -11 -2 -11 11 -21 15 -21
10 0 -5 -5 -2 -11 6 -9 13 -10 13 -6 0 2 -8 9 -15 16 -15 6 0 15 -6 20 -13 4
-7 21 -12 37 -12 49 1 63 -3 57 -14 -4 -6 1 -5 10 2 18 15 37 8 37 -14 0 -9 5
-12 13 -8 6 4 8 3 4 -1 -15 -17 -39 -14 -32 3 5 14 4 15 -6 4 -22 -21 5 -35
71 -38 50 -1 64 -6 76 -23 13 -18 13 -20 -1 -15 -11 5 -14 2 -9 -10 6 -17 24
-17 36 -1 5 6 8 5 8 -4 0 -7 6 -11 15 -7 10 3 15 -1 15 -12 0 -15 2 -15 10 -2
9 13 11 13 20 0 6 -10 10 -11 10 -2 0 24 15 12 16 -14 3 -35 6 -37 74 -38 57
-1 72 -7 50 -21 -16 -10 -12 -25 8 -25 14 0 15 -2 2 -10 -12 -8 -10 -10 8 -10
16 0 21 4 16 13 -6 9 -4 9 7 0 7 -7 33 -13 58 -13 24 0 41 -3 38 -6 -3 -4 -1
-16 5 -28 11 -21 11 -21 -11 -2 -11 11 -21 15 -21 10 0 -5 -5 -2 -11 6 -9 13
-10 13 -6 0 2 -8 9 -15 16 -15 6 0 15 -6 20 -13 4 -7 21 -12 37 -12 49 1 63
-3 57 -14 -4 -6 1 -5 10 2 18 15 37 8 37 -14 0 -9 5 -12 13 -8 6 4 8 3 4 -1
-15 -17 -39 -14 -32 3 5 14 4 15 -6 5 -22 -22 5 -36 71 -39 50 -1 64 -6 76
-23 13 -18 13 -20 -1 -15 -11 5 -14 2 -9 -10 6 -17 24 -17 36 -1 5 6 8 5 8 -3
0 -7 5 -10 10 -7 6 3 10 3 10 -2 0 -4 32 -8 70 -9 39 0 70 3 70 7 0 4 14 6 31
4 28 -4 30 -3 25 25 -4 26 -1 30 20 31 23 1 56 5 72 8 4 1 1 5 -6 10 -11 7
-10 9 3 14 9 4 14 3 11 -1 -2 -4 -1 -13 3 -20 5 -9 12 -8 27 4 10 8 14 13 8
10 -7 -3 -12 4 -11 17 0 18 6 23 28 25 18 1 29 -3 29 -10 0 -10 3 -9 9 1 5 8
19 12 34 9 19 -4 28 1 35 17 5 12 6 28 2 36 -7 11 1 14 46 12 44 -1 54 1 55
15 0 15 1 14 8 -1 7 -18 8 -18 21 -1 9 11 10 15 3 10 -9 -5 -12 0 -11 17 2 21
7 23 38 21 19 -1 43 2 53 7 11 7 17 6 17 -2 0 -8 4 -8 14 1 8 6 12 19 9 27 -4
10 -2 14 5 9 6 -3 14 -1 18 5 4 7 3 9 -4 5 -6 -3 -13 -2 -17 4 -4 6 10 10 36
10 33 0 39 3 30 13 -8 10 -7 14 4 14 7 0 14 -3 13 -6 -2 -19 4 -24 12 -11 6
10 10 11 10 3 0 -7 5 -13 12 -13 6 0 9 2 6 5 -3 3 7 18 21 34 21 24 33 29 69
27 37 -1 42 1 38 17 -6 22 2 47 15 47 5 0 7 -14 4 -32 -4 -18 -3 -30 0 -26 6
5 11 25 14 49 1 3 22 7 48 8 26 1 52 6 58 13 7 8 6 9 -3 3 -9 -5 -12 -1 -10
11 2 13 -2 18 -12 16 -8 -2 -11 0 -7 5 8 8 21 9 90 12 16 1 26 5 23 9 -3 5 1
9 9 9 8 0 12 -4 9 -9 -3 -4 0 -8 5 -8 6 0 11 15 11 34 0 32 1 33 36 29 19 -2
33 0 30 5 -3 5 1 9 9 9 8 0 15 -3 15 -7 0 -3 9 -6 20 -6 10 0 17 2 15 5 -3 2
3 10 13 18 9 8 11 11 3 7 -10 -5 -13 -3 -8 9 3 9 1 18 -6 21 -7 3 2 5 18 5 66
-2 86 1 79 12 -4 8 0 7 15 -1 12 -6 27 -9 34 -6 7 2 5 5 -5 5 -9 1 -20 6 -24
13 -4 7 -3 8 4 4 7 -4 12 -1 12 8 0 9 -4 16 -10 16 -5 0 -10 5 -10 10 0 7 6 7
19 0 14 -7 22 -7 27 1 4 8 9 7 15 -2 7 -11 11 -11 17 -2 4 6 23 10 43 9 29 -2
35 0 34 15 -1 10 -4 22 -8 25 -10 11 -8 24 4 24 5 0 7 -5 3 -12 -5 -7 -3 -8 7
-2 16 10 30 12 79 16 19 1 38 7 42 12 4 6 13 11 19 11 7 0 14 7 16 15 3 9 1
11 -4 5 -11 -15 -35 -13 -41 4 -3 8 0 11 7 7 6 -4 11 -3 11 3 0 7 8 7 25 1 14
-5 25 -6 25 -2 0 5 14 7 30 6 27 -2 30 1 30 26 0 32 22 45 51 30 14 -8 19 -8
17 1 -2 6 7 13 20 15 14 2 21 0 17 -6 -10 -16 0 -12 30 14 20 17 24 26 15 31
-9 5 -11 4 -6 -3 5 -8 -1 -12 -16 -11 -13 0 -17 3 -10 6 6 2 10 8 7 13 -12 20
26 17 41 -3 9 -12 14 -15 11 -7 -3 10 4 20 19 27 13 6 22 7 18 2 -3 -5 6 -9
19 -9 28 0 54 24 37 35 -15 9 -12 22 6 29 12 5 15 2 10 -11 -6 -15 -5 -16 11
-1 10 8 24 13 32 10 8 -2 11 0 7 6 -3 6 -1 14 5 18 7 4 9 3 6 -3 -9 -15 14
-22 38 -12 11 4 14 8 8 8 -7 1 -12 7 -10 14 1 7 -6 11 -18 9 -16 -2 -17 -1 -5
7 8 5 18 7 22 5 4 -3 8 -1 8 5 0 6 24 9 60 8 51 -2 60 1 68 19 6 11 6 27 2 35
-7 11 1 14 46 12 44 -1 54 1 55 15 0 15 1 14 8 -1 7 -18 8 -18 21 -1 9 11 10
15 3 10 -9 -5 -12 0 -11 17 2 21 7 23 38 21 19 -1 43 2 53 7 11 7 17 6 17 -1
0 -6 5 -8 10 -5 8 5 7 12 -2 23 -10 12 -10 14 0 8 8 -5 12 0 12 14 0 12 5 18
10 15 6 -4 7 -11 4 -17 -4 -7 -2 -8 5 -4 6 4 9 12 5 18 -3 5 2 9 12 8 38 -4
47 -1 35 13 -8 10 -7 14 4 14 7 0 14 -3 13 -6 -2 -19 4 -24 12 -11 6 10 10 11
10 3 0 -7 5 -13 12 -13 6 0 9 3 6 6 -3 3 6 17 21 32 19 20 37 27 67 28 23 1
45 3 50 6 5 3 17 4 27 3 9 -2 15 1 12 5 -3 5 -14 7 -25 5 -23 -4 -33 7 -25 28
4 10 20 14 51 13 34 -1 43 2 39 13 -5 12 -3 12 11 0 10 -8 19 -13 22 -12 8 2
22 27 22 38 0 6 -4 4 -9 -4 -7 -10 -12 -11 -27 -1 -18 11 -18 11 0 6 13 -5 17
-2 13 8 -4 10 4 13 28 13 18 -1 41 6 51 14 13 10 16 11 10 1 -7 -12 -4 -12 14
-2 15 8 20 8 16 1 -4 -6 -2 -11 5 -11 6 0 9 8 6 20 -3 11 -1 20 4 20 5 0 8 5
6 12 -1 8 11 12 36 11 20 -1 35 2 32 7 -3 4 4 6 15 3 13 -3 20 0 21 8 0 8 4 5
9 -6 7 -16 9 -17 9 -3 1 9 4 25 7 35 5 15 4 15 -5 3 -6 -8 -11 -10 -11 -4 0 6
7 17 15 24 11 9 15 9 15 1 0 -7 5 -9 10 -6 6 3 10 0 10 -7 0 -8 3 -9 8 -3 12
17 47 41 38 28 -5 -9 0 -13 17 -13 28 0 54 24 37 35 -15 9 -12 22 6 29 12 5
15 2 10 -11 -6 -15 -5 -16 11 -1 10 8 24 13 32 10 8 -2 11 0 7 6 -3 6 -1 14 5
18 7 4 9 3 6 -3 -9 -15 14 -22 38 -12 11 4 14 8 8 8 -7 1 -12 7 -10 14 1 7 -6
11 -18 9 -16 -2 -17 -1 -5 7 8 5 18 7 22 5 4 -3 8 0 8 5 0 6 19 10 45 8 36 -2
44 0 40 12 -4 10 -2 11 7 3 7 -6 17 -11 22 -12 10 -2 26 20 26 35 0 6 -4 4 -9
-4 -7 -10 -12 -11 -27 -1 -18 11 -18 11 0 6 13 -5 17 -2 13 8 -4 10 3 13 29
12 20 -1 40 4 46 11 8 10 14 10 24 2 16 -13 37 -2 30 17 -3 9 1 14 12 15 10 0
12 3 5 6 -23 9 -14 24 11 19 14 -3 30 2 37 10 13 16 13 16 -19 19 -17 2 -22
-2 -17 -13 5 -12 3 -13 -10 -2 -12 10 -13 15 -4 20 8 6 8 9 -2 13 -10 4 -10 6
-1 6 6 1 12 6 12 12 0 5 -6 7 -12 3 -9 -5 -9 -2 1 9 7 9 9 17 4 17 -11 0 -11
39 0 58 5 7 3 12 -5 12 -10 0 -10 2 1 9 8 5 9 11 3 15 -11 7 -11 24 1 44 5 7
3 12 -5 12 -10 0 -10 2 1 9 7 5 9 11 4 14 -5 3 -9 24 -8 46 1 23 -4 41 -9 41
-6 0 -4 5 4 10 8 5 12 10 8 11 -10 2 -26 6 -35 9 -5 1 -29 2 -55 2 -27 0 -48
4 -48 10 0 5 6 6 13 3 6 -4 3 1 -7 9 -20 16 -16 20 16 17 9 -1 19 2 22 8 4 5
-3 7 -16 3 -15 -4 -19 -2 -13 7 6 10 3 11 -15 1 -14 -7 -25 -8 -29 -3 -3 6
-23 9 -44 9 -21 -1 -41 2 -43 6 -3 5 -10 5 -16 2 -7 -5 -8 -2 -2 7 21 33 15
48 -19 45 -17 -2 -35 2 -39 8 -6 8 -11 7 -17 -3 -6 -9 -11 -10 -15 -2 -4 6
-12 9 -17 6 -9 -6 -13 7 -10 37 2 18 0 18 -109 19 -30 0 -33 2 -19 12 14 10
14 14 2 25 -7 7 -12 16 -9 20 2 4 -7 8 -20 8 -13 1 -21 -2 -18 -8 3 -5 -17 3
-46 18 -37 19 -48 29 -38 35 7 5 11 9 8 10 -50 9 -61 9 -54 -3 9 -14 -26 10
-38 27 -5 6 -8 6 -8 -2 0 -6 -8 -10 -17 -8 -10 2 -22 4 -28 5 -5 1 1 6 15 10
14 5 18 8 9 9 -9 1 -19 10 -22 21 -4 14 -11 18 -31 14 -17 -3 -26 0 -26 8 0 8
-3 9 -8 3 -6 -10 -14 -11 -49 -7 -21 3 -15 30 9 46 12 9 18 16 12 16 -5 0 -15
-5 -22 -12 -9 -9 -12 -9 -12 0 0 7 -7 12 -16 12 -8 0 -13 -4 -10 -8 3 -5 -1
-9 -9 -9 -8 0 -12 4 -9 9 3 4 -5 8 -18 8 -13 0 -30 6 -37 13 -10 10 -11 8 -5
-7 5 -13 4 -17 -4 -12 -7 4 -12 20 -12 37 0 29 -14 36 -59 29 -8 -1 -18 4 -22
12 -7 10 -9 10 -9 1 0 -7 -11 -12 -24 -11 -18 2 -22 6 -15 14 5 6 7 19 3 28
-6 16 -21 20 -56 17 -10 -1 -18 3 -18 10 0 7 -5 8 -12 3 -12 -8 -24 -9 -53 -5
-5 1 4 8 20 16 17 8 20 12 9 10 -23 -6 -42 20 -21 29 7 2 0 5 -15 5 -14 1 -29
-5 -31 -11 -4 -10 -6 -10 -6 0 -1 7 -5 10 -11 7 -5 -3 -10 -2 -10 3 0 5 -12 9
-27 8 -19 -1 -29 5 -31 16 -3 13 1 16 15 12 17 -5 17 -5 0 6 -9 6 -15 15 -12
21 9 14 -2 11 -19 -7 -12 -12 -16 -12 -16 -2 0 9 -14 13 -45 13 -25 -1 -45 3
-45 7 0 4 -6 5 -14 2 -8 -3 -17 -1 -20 4 -4 6 5 9 19 7 16 -1 24 2 22 9 -3 6
-10 10 -17 8 -10 -2 -11 0 -2 11 10 11 6 14 -18 15 -17 0 -28 -4 -25 -9 4 -5
2 -9 -4 -9 -5 0 -11 6 -13 12 -3 7 -19 11 -39 10 -33 -3 -33 -2 -12 13 12 8
30 13 40 10 10 -3 7 0 -6 7 -19 10 -25 10 -29 0 -4 -14 -32 -16 -32 -2 0 5 8
14 18 19 13 8 6 11 -33 12 -27 1 -57 1 -65 0 -8 -1 -4 6 10 14 l25 16 -24 -7
c-18 -5 -22 -3 -16 7 5 8 4 11 -1 6 -5 -5 -10 -13 -10 -18 -4 -30 -6 -32 -14
-14 -4 11 -4 24 0 29 10 11 1 36 -12 36 -6 0 -4 -8 3 -17 13 -17 13 -17 -7 0
-11 9 -23 17 -27 17 -3 0 -3 -8 0 -17 6 -17 5 -16 -12 0 -10 10 -26 16 -36 14
-13 -4 -19 0 -19 11 0 10 -3 13 -8 7 -4 -5 -14 -11 -22 -13 -12 -3 -13 -1 -2
9 23 24 15 48 -17 47 -15 -1 -33 2 -39 6 -6 3 -13 2 -17 -4 -4 -7 -12 -7 -26
0 -24 14 -26 41 -1 34 16 -5 16 -5 -1 6 -9 6 -15 15 -12 21 9 14 -2 11 -19 -7
-12 -12 -16 -12 -16 -2 0 14 -56 18 -76 5 -6 -3 -11 -1 -11 6 0 7 -4 21 -9 31
-4 12 -4 17 3 13 5 -3 10 0 10 8 0 7 -10 13 -21 13 -12 0 -46 0 -76 1 l-55 1
30 20 c21 14 25 20 13 20 -10 0 -18 -4 -18 -10 0 -5 -7 -10 -15 -10 -20 0 -19
17 3 29 13 8 6 11 -33 12 -27 1 -57 1 -65 0 -8 -1 -4 6 10 14 l25 16 -24 -7
c-18 -5 -22 -3 -16 7 5 8 4 11 -1 6 -5 -5 -10 -13 -10 -18 -4 -30 -6 -32 -14
-14 -4 11 -4 24 0 29 10 11 1 36 -12 36 -6 0 -4 -8 3 -17 13 -17 13 -17 -7 0
-11 9 -23 17 -27 17 -3 0 -3 -8 0 -17 6 -17 5 -16 -12 0 -10 10 -26 16 -36 14
-13 -4 -19 0 -19 11 0 10 -3 13 -8 7 -4 -5 -14 -11 -22 -13 -12 -3 -13 -1 -2
9 25 26 14 47 -24 47 -20 0 -40 6 -45 14 -7 10 -9 8 -9 -7 0 -15 -3 -17 -9 -7
-4 8 -11 13 -15 13 -23 -3 -27 2 -6 9 14 5 18 8 9 9 -9 1 -19 10 -22 21 -4 14
-11 18 -31 14 -17 -3 -26 0 -26 8 0 8 -3 9 -8 3 -6 -10 -14 -11 -49 -7 -21 3
-15 30 9 46 12 9 18 16 12 16 -5 0 -15 -5 -22 -12 -9 -9 -12 -9 -12 0 0 7 -7
12 -16 12 -8 0 -13 -4 -10 -8 3 -5 -1 -9 -9 -9 -8 0 -12 4 -9 9 3 4 -5 8 -18
8 -13 0 -30 6 -37 13 -10 10 -11 8 -5 -7 5 -13 4 -17 -4 -12 -7 4 -12 20 -12
37 0 29 -11 35 -62 30 -10 -1 -18 4 -18 11 0 10 -2 10 -8 1 -4 -7 -16 -10 -27
-8 -11 2 -22 4 -24 4 -3 1 0 6 6 12 16 16 5 39 -17 39 -11 0 -22 5 -25 10 -4
7 -13 7 -26 0 -14 -8 -19 -7 -19 1 0 8 -4 8 -15 -1 -12 -10 -16 -9 -21 5 -4
10 -2 25 3 35 12 19 13 19 -79 21 -32 1 -58 6 -58 11 0 5 6 6 13 3 6 -4 3 1
-7 9 -20 16 -16 20 16 17 9 -1 19 2 22 8 4 5 -3 7 -16 3 -15 -4 -19 -2 -13 7
6 10 3 11 -15 1 -14 -8 -25 -9 -29 -2 -3 5 -17 10 -31 10 -70 0 -71 0 -66 32
3 25 1 30 -15 30 -14 0 -18 -4 -13 -12 6 -10 4 -10 -7 -2 -20 16 -78 23 -83
10 -2 -6 -5 -2 -5 8 -1 11 7 29 17 40 16 20 16 20 0 7 -10 -7 -18 -9 -18 -4 0
13 -43 14 -52 0 -5 -8 -8 -7 -8 4 0 12 -9 15 -42 12 -29 -2 -47 2 -60 14 -15
14 -19 14 -16 3z m-27 -70 c3 -6 -1 -7 -9 -4 -18 7 -21 14 -7 14 6 0 13 -4 16
-10z m-134 -43 c-10 -9 -11 -8 -5 6 3 10 9 15 12 12 3 -3 0 -11 -7 -18z m442
-11 c6 -15 -17 -16 -30 -1 -4 4 -2 5 5 1 6 -4 12 -2 12 3 0 15 7 14 13 -3z
m113 -48 c5 -7 3 -8 -6 -3 -10 6 -12 4 -6 -11 5 -14 4 -16 -5 -7 -6 6 -8 16
-5 22 9 14 13 14 22 -1z m-681 -28 c-3 -5 -12 -10 -18 -10 -7 0 -6 4 3 10 19
12 23 12 15 0z m-144 -43 c-10 -9 -11 -8 -5 6 3 10 9 15 12 12 3 -3 0 -11 -7
-18z m975 3 c0 -12 -4 -16 -9 -11 -5 5 -6 14 -3 20 10 15 12 14 12 -9z m-949
-15 c0 -8 -4 -12 -9 -9 -5 3 -6 10 -3 15 9 13 12 11 12 -6z m923 11 c0 -3 -4
-8 -10 -11 -5 -3 -10 -1 -10 4 0 6 5 11 10 11 6 0 10 -2 10 -4z m117 -48 c-3
-8 -6 -5 -6 6 -1 11 2 17 5 13 3 -3 4 -12 1 -19z m35 -12 c7 4 8 2 4 -5 -9
-13 -26 -5 -25 12 0 9 2 8 6 -1 2 -6 10 -9 15 -6z m-17 -26 c3 -6 -1 -7 -9 -4
-18 7 -21 14 -7 14 6 0 13 -4 16 -10z m-1315 -34 c0 -2 -7 -7 -16 -10 -8 -3
-12 -2 -9 4 6 10 25 14 25 6z m0 -26 c0 -5 -5 -10 -11 -10 -5 0 -7 5 -4 10 3
6 8 10 11 10 2 0 4 -4 4 -10z m1567 -46 c-3 -3 -12 -4 -19 -1 -8 3 -5 6 6 6
11 1 17 -2 13 -5z m144 -71 c-12 -20 -14 -14 -5 12 4 9 9 14 11 11 3 -2 0 -13
-6 -23z m129 -58 c0 -2 -6 -7 -12 -11 -7 -4 -10 -4 -6 1 4 4 0 14 -10 22 -15
13 -15 13 6 3 12 -6 22 -13 22 -15z m-2340 -61 c0 -8 -19 -13 -24 -6 -3 5 1 9
9 9 8 0 15 -2 15 -3z m-140 -58 c0 -2 -7 -7 -16 -10 -8 -3 -12 -2 -9 4 6 10
25 14 25 6z m0 -26 c0 -5 -5 -10 -11 -10 -5 0 -7 5 -4 10 3 6 8 10 11 10 2 0
4 -4 4 -10z m2975 -110 c3 -6 -1 -7 -9 -4 -18 7 -21 14 -7 14 6 0 13 -4 16
-10z m145 -65 c0 -2 -6 -7 -12 -11 -7 -4 -10 -4 -6 1 4 4 0 14 -10 22 -15 13
-15 13 6 3 12 -6 22 -13 22 -15z m-3620 -61 c0 -8 -19 -13 -24 -6 -3 5 1 9 9
9 8 0 15 -2 15 -3z m-136 -86 c-3 -4 -11 -5 -19 -1 -21 7 -19 12 4 10 11 0 18
-5 15 -9z m-143 -41 c-10 -9 -11 -8 -5 6 3 10 9 15 12 12 3 -3 0 -11 -7 -18z
m4394 -67 c3 -6 -1 -7 -9 -4 -18 7 -21 14 -7 14 6 0 13 -4 16 -10z m-4520 -20
c-3 -5 -12 -10 -18 -10 -7 0 -6 4 3 10 19 12 23 12 15 0z m-144 -43 c-10 -9
-11 -8 -5 6 3 10 9 15 12 12 3 -3 0 -11 -7 -18z m26 -12 c0 -8 -4 -12 -9 -9
-5 3 -6 10 -3 15 9 13 12 11 12 -6z m4754 -8 c-10 -9 -11 -8 -5 6 3 10 9 15
12 12 3 -3 0 -11 -7 -18z m133 -67 c-6 -6 -10 -3 -10 10 0 13 4 16 10 10 7 -7
7 -13 0 -20z m141 -40 c3 -6 -1 -7 -9 -4 -18 7 -21 14 -7 14 6 0 13 -4 16 -10z
m122 -66 c-3 -3 -12 -4 -19 -1 -8 3 -5 6 6 6 11 1 17 -2 13 -5z m144 -71 c-12
-20 -14 -14 -5 12 4 9 9 14 11 11 3 -2 0 -13 -6 -23z m-5836 -13 c-3 -5 -12
-10 -18 -10 -7 0 -6 4 3 10 19 12 23 12 15 0z m-105 -64 c0 -6 -7 -1 -15 10
-8 10 -15 23 -15 28 0 6 7 1 15 -10 8 -10 15 -23 15 -28z m6120 -4 c0 -5 -7
-9 -15 -9 -8 0 -15 4 -15 9 0 4 7 8 15 8 8 0 15 -4 15 -8z m-6265 -22 c-3 -5
-12 -10 -18 -10 -7 0 -6 4 3 10 19 12 23 12 15 0z m18 -25 c-3 -9 -8 -14 -10
-11 -3 3 -2 9 2 15 9 16 15 13 8 -4z m6317 5 c0 -5 -4 -10 -10 -10 -5 0 -10 5
-10 10 0 6 5 10 10 10 6 0 10 -4 10 -10z m117 -66 c0 -7 -6 -10 -14 -7 -7 3
-13 8 -13 12 0 4 6 8 13 8 8 0 14 -6 14 -13z m130 -50 c-3 -3 -12 -4 -19 -1
-8 3 -5 6 6 6 11 1 17 -2 13 -5z m129 -66 c5 -7 3 -8 -6 -3 -10 6 -12 4 -6
-11 5 -14 4 -16 -5 -7 -6 6 -8 16 -5 22 9 14 13 14 22 -1z m-7101 -28 c-3 -5
-12 -10 -18 -10 -7 0 -6 4 3 10 19 12 23 12 15 0z m7249 -46 c3 -8 2 -12 -4
-9 -6 3 -10 10 -10 16 0 14 7 11 14 -7z m-7355 -17 c0 -9 -2 -8 -6 1 -2 6 -10
9 -15 6 -7 -4 -8 -2 -4 5 9 13 26 5 25 -12z m7331 19 c0 -3 -4 -8 -10 -11 -5
-3 -10 -1 -10 4 0 6 5 11 10 11 6 0 10 -2 10 -4z m100 -330 c0 -3 -4 -8 -10
-11 -5 -3 -10 -1 -10 4 0 6 5 11 10 11 6 0 10 -2 10 -4z m-7430 -32 c0 -8 -19
-13 -24 -6 -3 5 1 9 9 9 8 0 15 -2 15 -3z m10 -19 c0 -2 -10 -9 -22 -15 -22
-11 -22 -10 -4 4 21 17 26 19 26 11z m100 -39 c0 -3 -4 -8 -10 -11 -5 -3 -10
-1 -10 4 0 6 5 11 10 11 6 0 10 -2 10 -4z m137 -78 c-3 -8 -6 -5 -6 6 -1 11 2
17 5 13 3 -3 4 -12 1 -19z m147 -66 c3 -5 -1 -9 -9 -9 -8 0 -12 4 -9 9 3 4 7
8 9 8 2 0 6 -4 9 -8z m6606 -17 c0 -12 -19 -12 -23 0 -4 9 -1 12 9 8 7 -3 14
-7 14 -8z m-189 -48 c-10 -9 -11 -8 -5 6 3 10 9 15 12 12 3 -3 0 -11 -7 -18z
m-6166 -46 c3 -5 2 -12 -3 -15 -5 -3 -9 1 -9 9 0 17 3 19 12 6z m6075 -7 c0
-8 -19 -13 -24 -6 -3 5 1 9 9 9 8 0 15 -2 15 -3z m-5940 -60 c0 -8 -19 -13
-24 -6 -3 5 1 9 9 9 8 0 15 -2 15 -3z m-15 -32 c-3 -3 -11 0 -18 7 -9 10 -8
11 6 5 10 -3 15 -9 12 -12z m122 -44 c-3 -8 -6 -5 -6 6 -1 11 2 17 5 13 3 -3
4 -12 1 -19z m5480 -63 c-6 -14 -41 -16 -52 -2 -3 4 -2 5 1 2 4 -2 16 2 27 10
24 17 32 13 24 -10z m-5333 -3 c3 -5 -1 -9 -9 -9 -8 0 -12 4 -9 9 3 4 7 8 9 8
2 0 6 -4 9 -8z m116 -62 c0 -5 -4 -10 -10 -10 -5 0 -10 5 -10 10 0 6 5 10 10
10 6 0 10 -4 10 -10z m5040 0 c0 -5 -4 -10 -10 -10 -5 0 -10 5 -10 10 0 6 5
10 10 10 6 0 10 -4 10 -10z m-4905 -49 c3 -5 2 -12 -3 -15 -5 -3 -9 1 -9 9 0
17 3 19 12 6z m120 -71 c-3 -5 -1 -10 6 -10 7 0 10 -3 6 -6 -9 -9 -28 6 -22
17 4 5 8 9 11 9 3 0 2 -4 -1 -10z m4523 -15 c-3 -3 -9 2 -12 12 -6 14 -5 15 5
6 7 -7 10 -15 7 -18z m42 0 c0 -2 -10 -9 -22 -15 -22 -11 -22 -10 -4 4 21 17
26 19 26 11z m-4452 -60 c-3 -3 -9 2 -12 12 -6 14 -5 15 5 6 7 -7 10 -15 7
-18z m27 6 c3 -5 2 -12 -3 -15 -5 -3 -9 1 -9 9 0 17 3 19 12 6z m4175 -86 c0
-12 -19 -12 -23 0 -4 9 -1 12 9 8 7 -3 14 -7 14 -8z m-3925 -43 c-3 -3 -11 0
-18 7 -9 10 -8 11 6 5 10 -3 15 -9 12 -12z m3745 -2 c8 -5 11 -10 5 -10 -5 0
-17 5 -25 10 -8 5 -10 10 -5 10 6 0 17 -5 25 -10z m-3615 -80 c-3 -5 -16 -10
-28 -9 -20 1 -20 2 3 9 14 4 26 8 28 9 2 1 0 -3 -3 -9z m3505 1 c0 -6 -5 -13
-12 -17 -7 -5 -8 -3 -3 6 6 10 4 12 -9 7 -10 -4 -15 -3 -11 3 8 13 35 13 35 1z
m-3395 -61 c-3 -5 -12 -10 -18 -10 -7 0 -6 4 3 10 19 12 23 12 15 0z m3290 -8
c-3 -3 -11 0 -18 7 -9 10 -8 11 6 5 10 -3 15 -9 12 -12z m-3167 -47 c-3 -3 -9
2 -12 12 -6 14 -5 15 5 6 7 -7 10 -15 7 -18z m2995 8 c-5 -12 -3 -14 7 -8 9 6
11 4 5 -4 -5 -9 -11 -9 -17 -3 -6 6 -7 15 -4 21 11 17 16 13 9 -6z m-2968 -2
c3 -5 2 -12 -3 -15 -5 -3 -9 1 -9 9 0 17 3 19 12 6z m3015 -16 c0 -2 -10 -9
-22 -15 -22 -11 -22 -10 -4 4 21 17 26 19 26 11z m-172 -60 c-3 -3 -9 2 -12
12 -6 14 -5 15 5 6 7 -7 10 -15 7 -18z m-2588 -39 c0 -2 -7 -7 -16 -10 -8 -3
-12 -2 -9 4 6 10 25 14 25 6z m2474 -32 c5 -14 4 -15 -9 -4 -17 14 -19 20 -6
20 5 0 12 -7 15 -16z m-2354 -40 c0 -8 -19 -13 -24 -6 -3 5 1 9 9 9 8 0 15 -2
15 -3z m2205 -13 c3 -5 2 -12 -3 -15 -5 -3 -9 1 -9 9 0 17 3 19 12 6z m-2238
-7 c-3 -3 -12 -4 -19 -1 -8 3 -5 6 6 6 11 1 17 -2 13 -5z m40 -9 c0 -8 -4 -12
-9 -9 -5 3 -6 10 -3 15 9 13 12 11 12 -6z m2067 -51 c3 -8 2 -12 -4 -9 -6 3
-10 10 -10 16 0 14 7 11 14 -7z m-1820 -42 c3 -5 -1 -9 -9 -9 -8 0 -12 4 -9 9
3 4 7 8 9 8 2 0 6 -4 9 -8z m11 -33 c11 -16 1 -19 -13 -3 -7 8 -8 14 -3 14 5
0 13 -5 16 -11z m1622 -44 c-6 -14 -41 -16 -52 -2 -3 4 -2 5 1 2 4 -2 16 2 27
10 24 17 32 13 24 -10z m-1367 -49 c0 -2 -7 -7 -16 -10 -8 -3 -12 -2 -9 4 6
10 25 14 25 6z m1190 -16 c0 -5 -4 -10 -10 -10 -5 0 -10 5 -10 10 0 6 5 10 10
10 6 0 10 -4 10 -10z m-1190 -22 c0 -4 -11 -7 -25 -6 -33 3 -33 16 0 14 14 0
25 -4 25 -8z m120 -34 c0 -8 -19 -13 -24 -6 -3 5 1 9 9 9 8 0 15 -2 15 -3z
m-33 -20 c-3 -3 -12 -4 -19 -1 -8 3 -5 6 6 6 11 1 17 -2 13 -5z m40 -9 c0 -8
-4 -12 -9 -9 -5 3 -6 10 -3 15 9 13 12 11 12 -6z m801 -50 c-3 -3 -9 2 -12 12
-6 14 -5 15 5 6 7 -7 10 -15 7 -18z m42 0 c0 -2 -10 -9 -22 -15 -22 -11 -22
-10 -4 4 21 17 26 19 26 11z m-596 -43 c3 -5 -1 -9 -9 -9 -8 0 -12 4 -9 9 3 4
7 8 9 8 2 0 6 -4 9 -8z m11 -33 c11 -16 1 -19 -13 -3 -7 8 -8 14 -3 14 5 0 13
-5 16 -11z m285 -45 c0 -8 -19 -13 -24 -6 -3 5 1 9 9 9 8 0 15 -2 15 -3z"/>
<path d="M4615 4340 c-3 -5 -1 -10 4 -10 6 0 11 5 11 10 0 6 -2 10 -4 10 -3 0
-8 -4 -11 -10z"/>
<path d="M4979 4348 c-6 -12 -4 -46 2 -42 4 2 5 12 2 21 -5 12 -3 14 7 8 9 -5
11 -4 6 3 -7 11 -14 15 -17 10z"/>
<path d="M5095 4280 c-3 -5 -1 -10 4 -10 6 0 11 5 11 10 0 6 -2 10 -4 10 -3 0
-8 -4 -11 -10z"/>
<path d="M4495 4271 c-3 -5 0 -13 6 -17 8 -5 9 -3 4 6 -6 10 -4 12 9 7 10 -4
15 -3 11 3 -8 13 -22 13 -30 1z"/>
<path d="M5074 4262 c3 -5 0 -13 -6 -15 -9 -4 -10 -6 -1 -6 17 -1 25 16 12 25
-7 4 -9 3 -5 -4z"/>
<path d="M4350 4201 c0 -6 4 -13 10 -16 6 -3 7 1 4 9 -7 18 -14 21 -14 7z"/>
<path d="M4233 4145 c0 -8 4 -15 9 -15 4 0 8 4 8 9 0 6 -4 12 -8 15 -5 3 -9
-1 -9 -9z"/>
<path d="M5348 4143 c6 -2 18 -2 25 0 6 3 1 5 -13 5 -14 0 -19 -2 -12 -5z"/>
<path d="M4104 4078 c-4 -6 -3 -8 4 -4 5 3 13 0 15 -6 3 -8 6 -6 6 5 1 19 -14
23 -25 5z"/>
<path d="M5450 4086 c0 -2 7 -7 16 -10 8 -3 12 -2 9 4 -6 10 -25 14 -25 6z"/>
<path d="M5598 4003 c7 -3 16 -2 19 1 4 3 -2 6 -13 5 -11 0 -14 -3 -6 -6z"/>
<path d="M3850 3960 c0 -5 5 -10 11 -10 5 0 7 5 4 10 -3 6 -8 10 -11 10 -2 0
-4 -4 -4 -10z"/>
<path d="M3860 3936 c0 -2 7 -7 16 -10 8 -3 12 -2 9 4 -6 10 -25 14 -25 6z"/>
<path d="M5717 3925 c3 -8 9 -12 14 -9 12 7 11 11 -5 17 -10 4 -13 1 -9 -8z"/>
<path d="M3750 3870 c6 -11 13 -20 16 -20 2 0 0 9 -6 20 -6 11 -13 20 -16 20
-2 0 0 -9 6 -20z"/>
<path d="M5851 3887 c2 -1 13 -9 24 -17 19 -14 19 -14 6 3 -7 9 -18 17 -24 17
-6 0 -8 -1 -6 -3z"/>
<path d="M5975 3821 c-3 -6 4 -15 15 -21 13 -7 20 -7 20 0 0 5 -7 10 -16 10
-8 0 -12 5 -9 10 3 6 4 10 1 10 -3 0 -7 -4 -11 -9z"/>
<path d="M6120 3771 c0 -6 4 -13 10 -16 6 -3 7 1 4 9 -7 18 -14 21 -14 7z"/>
<path d="M3464 3758 c-4 -6 -3 -8 4 -4 5 3 13 0 15 -6 3 -8 6 -6 6 5 1 19 -14
23 -25 5z"/>
<path d="M3210 3640 c0 -5 5 -10 11 -10 5 0 7 5 4 10 -3 6 -8 10 -11 10 -2 0
-4 -4 -4 -10z"/>
<path d="M6375 3621 c-6 -11 13 -26 22 -17 4 3 1 6 -6 6 -7 0 -9 5 -6 10 3 6
4 10 1 10 -3 0 -7 -4 -11 -9z"/>
<path d="M3220 3616 c0 -2 7 -7 16 -10 8 -3 12 -2 9 4 -6 10 -25 14 -25 6z"/>
<path d="M6500 3576 c0 -2 7 -7 16 -10 8 -3 12 -2 9 4 -6 10 -25 14 -25 6z"/>
<path d="M3110 3550 c6 -11 13 -20 16 -20 2 0 0 9 -6 20 -6 11 -13 20 -16 20
-2 0 0 -9 6 -20z"/>
<path d="M6615 3501 c-3 -6 4 -15 15 -21 13 -7 20 -7 20 0 0 5 -7 10 -16 10
-8 0 -12 5 -9 10 3 6 4 10 1 10 -3 0 -7 -4 -11 -9z"/>
<path d="M6760 3451 c0 -6 4 -13 10 -16 6 -3 7 1 4 9 -7 18 -14 21 -14 7z"/>
<path d="M2840 3435 c-19 -22 -8 -25 13 -3 9 10 13 18 8 18 -5 0 -14 -7 -21
-15z"/>
<path d="M2855 3421 c-3 -5 -2 -12 3 -15 5 -3 9 1 9 9 0 17 -3 19 -12 6z"/>
<path d="M2695 3380 c-3 -5 -1 -10 4 -10 6 0 11 5 11 10 0 6 -2 10 -4 10 -3 0
-8 -4 -11 -10z"/>
<path d="M7000 3320 c-9 -6 -10 -10 -3 -10 6 0 15 5 18 10 8 12 4 12 -15 0z"/>
<path d="M2575 3311 c-3 -5 0 -13 6 -17 8 -5 9 -3 4 6 -6 10 -4 12 9 7 10 -4
15 -3 11 3 -8 13 -22 13 -30 1z"/>
<path d="M7011 3284 c0 -11 3 -14 6 -6 3 7 2 16 -1 19 -3 4 -6 -2 -5 -13z"/>
<path d="M7140 3256 c0 -2 7 -7 16 -10 8 -3 12 -2 9 4 -6 10 -25 14 -25 6z"/>
<path d="M2430 3241 c0 -6 4 -13 10 -16 6 -3 7 1 4 9 -7 18 -14 21 -14 7z"/>
<path d="M7275 3191 c-3 -5 -2 -12 3 -15 5 -3 9 1 9 9 0 17 -3 19 -12 6z"/>
<path d="M2313 3168 c-2 -18 0 -20 7 -8 12 18 13 30 2 30 -4 0 -9 -10 -9 -22z"/>
<path d="M2191 3113 c6 -7 17 -13 23 -12 7 0 6 2 -2 6 -6 2 -10 8 -8 12 3 4
-1 8 -9 8 -11 0 -12 -4 -4 -14z"/>
<path d="M7377 3113 c3 -7 6 -13 8 -13 2 0 5 6 8 13 3 8 -1 14 -8 14 -7 0 -11
-6 -8 -14z"/>
<path d="M7411 3114 c0 -11 3 -14 6 -6 3 7 2 16 -1 19 -3 4 -6 -2 -5 -13z"/>
<path d="M7518 3043 c7 -3 16 -2 19 1 4 3 -2 6 -13 5 -11 0 -14 -3 -6 -6z"/>
<path d="M1950 3000 c0 -6 7 -10 15 -10 8 0 15 2 15 4 0 2 -7 6 -15 10 -8 3
-15 1 -15 -4z"/>
<path d="M7637 2965 c3 -8 9 -12 14 -9 12 7 11 11 -5 17 -10 4 -13 1 -9 -8z"/>
<path d="M1805 2920 c-3 -5 -1 -10 4 -10 6 0 11 5 11 10 0 6 -2 10 -4 10 -3 0
-8 -4 -11 -10z"/>
<path d="M7771 2927 c2 -1 13 -9 24 -17 19 -14 19 -14 6 3 -7 9 -18 17 -24 17
-6 0 -8 -1 -6 -3z"/>
<path d="M7910 2863 c0 -5 5 -15 10 -23 7 -12 9 -10 7 8 -1 19 -17 33 -17 15z"/>
<path d="M1551 2793 c6 -7 17 -13 23 -12 7 0 6 2 -2 6 -6 2 -10 8 -8 12 3 4
-1 8 -9 8 -11 0 -12 -4 -4 -14z"/>
<path d="M8020 2800 c-9 -6 -10 -10 -3 -10 6 0 15 5 18 10 8 12 4 12 -15 0z"/>
<path d="M8036 2782 c-3 -4 4 -9 15 -9 23 -2 25 3 4 10 -8 4 -16 3 -19 -1z"/>
<path d="M8160 2720 c-9 -6 -10 -10 -3 -10 6 0 15 5 18 10 8 12 4 12 -15 0z"/>
<path d="M1310 2680 c0 -6 7 -10 15 -10 8 0 15 2 15 4 0 2 -7 6 -15 10 -8 3
-15 1 -15 -4z"/>
<path d="M1165 2600 c-3 -5 -1 -10 4 -10 6 0 11 5 11 10 0 6 -2 10 -4 10 -3 0
-8 -4 -11 -10z"/>
<path d="M8539 2513 c-13 -17 -13 -17 6 -3 11 8 22 16 24 17 2 2 0 3 -6 3 -6
0 -17 -8 -24 -17z"/>
<path d="M8536 2475 c-9 -13 -12 -26 -7 -30 10 -5 9 -23 0 -40 -5 -9 -5 -31 1
-37 7 -9 7 -39 0 -43 -5 -3 -6 -15 -3 -28 2 -12 6 -34 7 -50 1 -15 5 -27 9
-27 4 0 12 0 17 0 6 0 10 9 10 21 0 14 -5 19 -14 16 -18 -7 -16 31 3 42 7 5
10 14 7 20 -4 6 -2 11 3 11 6 0 11 5 11 11 0 5 -4 8 -9 4 -5 -3 -12 -1 -16 5
-3 5 -1 10 5 10 7 0 10 7 6 15 -3 8 0 15 7 15 7 0 3 7 -7 15 -17 13 -15 19 5
17 11 -1 2 42 -9 46 -7 2 -12 8 -12 13 0 4 7 6 15 3 8 -4 15 -4 15 -1 0 3 -6
7 -14 10 -8 3 -21 -4 -30 -18z m26 -23 c-7 -2 -10 -8 -7 -12 3 -5 0 -12 -6
-16 -7 -4 -9 -3 -5 4 3 6 2 13 -4 17 -16 10 -1 25 17 18 11 -4 13 -8 5 -11z
m-6 -67 c-1 -9 -6 -15 -12 -15 -9 0 -13 19 -6 33 6 12 20 -2 18 -18z m0 -60
c1 -8 -4 -19 -11 -25 -10 -9 -13 -7 -10 7 2 10 4 20 5 23 1 3 1 10 0 15 -1 6
2 6 6 2 4 -4 9 -14 10 -22z m-5 -98 c-10 -9 -11 -8 -5 6 3 10 9 15 12 12 3 -3
0 -11 -7 -18z"/>
<path d="M1055 2441 c-3 -5 -1 -13 5 -16 8 -5 8 -11 0 -20 -8 -9 -8 -15 0 -20
6 -3 7 -11 4 -17 -4 -6 -3 -8 3 -5 8 5 10 50 3 67 -1 3 -2 8 -1 13 1 10 -7 9
-14 -2z"/>
<path d="M1029 2342 c7 -13 7 -22 0 -29 -7 -7 -1 -16 16 -27 14 -9 23 -22 19
-28 -4 -6 -3 -8 4 -5 14 9 7 43 -8 39 -8 -2 -10 3 -6 13 16 40 19 49 11 43 -4
-4 -16 -3 -27 3 -17 9 -18 8 -9 -9z"/>
<path d="M8550 2278 c0 -4 7 -8 15 -8 8 0 15 4 15 8 0 5 -7 9 -15 9 -8 0 -15
-4 -15 -9z"/>
<path d="M1050 2136 c0 -2 8 -10 18 -17 15 -13 16 -12 3 4 -13 16 -21 21 -21
13z"/>
<path d="M8535 2131 c-3 -5 -2 -12 3 -15 5 -3 9 1 9 9 0 17 -3 19 -12 6z"/>
<path d="M1181 2092 c-1 -8 -6 -10 -13 -6 -10 5 -10 4 -1 -6 15 -16 28 -8 20
12 -4 11 -6 11 -6 0z"/>
<path d="M8410 2080 c0 -5 5 -10 10 -10 6 0 10 5 10 10 0 6 -4 10 -10 10 -5 0
-10 -4 -10 -10z"/>
<path d="M1288 2033 c6 -2 9 -10 6 -15 -4 -7 -2 -8 5 -4 13 9 5 26 -12 25 -9
0 -8 -2 1 -6z"/>
<path d="M8276 2007 c3 -10 9 -15 12 -12 3 3 0 11 -7 18 -10 9 -11 8 -5 -6z"/>
<path d="M1300 2000 c-9 -6 -10 -10 -3 -10 6 0 15 5 18 10 8 12 4 12 -15 0z"/>
<path d="M1415 1941 c-3 -5 0 -13 6 -17 8 -5 9 -3 4 6 -6 10 -3 12 13 8 12 -4
20 -2 16 3 -7 12 -31 12 -39 0z"/>
<path d="M8156 1933 c-6 -14 -5 -15 5 -6 7 7 10 15 7 18 -3 3 -9 -2 -12 -12z"/>
<path d="M1550 1880 c-9 -6 -10 -10 -3 -10 6 0 15 5 18 10 8 12 4 12 -15 0z"/>
<path d="M8015 1870 c-3 -6 1 -7 9 -4 18 7 21 14 7 14 -6 0 -13 -4 -16 -10z"/>
<path d="M1669 1817 c6 -8 7 -18 3 -22 -4 -5 -1 -5 6 -1 10 6 10 11 1 22 -6 8
-14 14 -16 14 -3 0 0 -6 6 -13z"/>
<path d="M7915 1800 c-3 -5 -1 -10 4 -10 6 0 11 5 11 10 0 6 -2 10 -4 10 -3 0
-8 -4 -11 -10z"/>
<path d="M1795 1771 c-6 -11 13 -26 22 -17 4 3 1 6 -6 6 -7 0 -9 5 -6 10 3 6
4 10 1 10 -3 0 -7 -4 -11 -9z"/>
<path d="M7770 1760 c0 -5 5 -10 10 -10 6 0 10 5 10 10 0 6 -4 10 -10 10 -5 0
-10 -4 -10 -10z"/>
<path d="M1928 1713 c6 -2 9 -10 6 -15 -4 -7 -2 -8 5 -4 13 9 5 26 -12 25 -9
0 -8 -2 1 -6z"/>
<path d="M1940 1680 c-9 -6 -10 -10 -3 -10 6 0 15 5 18 10 8 12 4 12 -15 0z"/>
<path d="M7530 1640 c0 -5 5 -10 10 -10 6 0 10 5 10 10 0 6 -4 10 -10 10 -5 0
-10 -4 -10 -10z"/>
<path d="M2055 1621 c-3 -5 0 -13 6 -17 8 -5 9 -3 4 6 -6 10 -3 12 13 8 12 -4
20 -2 16 3 -7 12 -31 12 -39 0z"/>
<path d="M7410 1566 c0 -8 4 -17 9 -20 5 -4 7 3 4 14 -6 23 -13 26 -13 6z"/>
<path d="M2210 1565 c0 -5 5 -17 10 -25 5 -8 10 -10 10 -5 0 6 -5 17 -10 25
-5 8 -10 11 -10 5z"/>
<path d="M7380 1560 c-9 -6 -10 -10 -3 -10 6 0 15 5 18 10 8 12 4 12 -15 0z"/>
<path d="M2317 1513 c-4 -6 0 -13 8 -17 8 -3 17 0 21 6 4 6 3 8 -4 4 -5 -3
-12 -1 -14 6 -3 8 -6 9 -11 1z"/>
<path d="M2435 1449 c-4 -6 -5 -12 -2 -15 2 -3 7 2 10 11 7 17 1 20 -8 4z"/>
<path d="M7151 1444 c0 -11 3 -14 6 -6 3 7 2 16 -1 19 -3 4 -6 -2 -5 -13z"/>
<path d="M2476 1434 c-9 -24 -2 -26 12 -4 7 11 8 20 3 20 -5 0 -12 -7 -15 -16z"/>
<path d="M7130 1431 c0 -6 4 -13 10 -16 6 -3 7 1 4 9 -7 18 -14 21 -14 7z"/>
<path d="M2560 1370 c6 -11 13 -20 16 -20 2 0 0 9 -6 20 -6 11 -13 20 -16 20
-2 0 0 -9 6 -20z"/>
<path d="M6996 1367 c3 -10 9 -15 12 -12 3 3 0 11 -7 18 -10 9 -11 8 -5 -6z"/>
<path d="M2745 1320 c-3 -5 -1 -10 4 -10 6 0 11 5 11 10 0 6 -2 10 -4 10 -3 0
-8 -4 -11 -10z"/>
<path d="M2707 1307 c-3 -8 3 -13 17 -14 11 0 15 1 8 4 -6 3 -10 9 -6 14 3 5
1 9 -4 9 -6 0 -12 -6 -15 -13z"/>
<path d="M6876 1293 c-6 -14 -5 -15 5 -6 7 7 10 15 7 18 -3 3 -9 -2 -12 -12z"/>
<path d="M2830 1245 c0 -8 2 -15 4 -15 2 0 6 7 10 15 3 8 1 15 -4 15 -6 0 -10
-7 -10 -15z"/>
<path d="M6755 1230 c-3 -5 -1 -10 4 -10 6 0 11 5 11 10 0 6 -2 10 -4 10 -3 0
-8 -4 -11 -10z"/>
<path d="M2971 1194 c0 -11 3 -14 6 -6 3 7 2 16 -1 19 -3 4 -6 -2 -5 -13z"/>
<path d="M2953 1165 c0 -8 4 -12 9 -9 5 3 6 10 3 15 -9 13 -12 11 -12 -6z"/>
<path d="M6611 1164 c0 -11 3 -14 6 -6 3 7 2 16 -1 19 -3 4 -6 -2 -5 -13z"/>
<path d="M6636 1158 c3 -5 10 -6 15 -3 13 9 11 12 -6 12 -8 0 -12 -4 -9 -9z"/>
<path d="M3101 1132 c-1 -8 -6 -10 -13 -6 -10 5 -10 4 -1 -6 15 -16 28 -8 20
12 -4 11 -6 11 -6 0z"/>
<path d="M6510 1100 c0 -5 5 -10 11 -10 5 0 7 5 4 10 -3 6 -8 10 -11 10 -2 0
-4 -4 -4 -10z"/>
<path d="M6374 1062 c3 -5 0 -12 -6 -15 -7 -2 -10 -7 -7 -11 3 -4 12 0 18 8 9
11 9 16 0 22 -7 4 -9 3 -5 -4z"/>
<path d="M3200 1051 c0 -6 4 -13 10 -16 6 -3 7 1 4 9 -7 18 -14 21 -14 7z"/>
<path d="M3385 1000 c-3 -5 -1 -10 4 -10 6 0 11 5 11 10 0 6 -2 10 -4 10 -3 0
-8 -4 -11 -10z"/>
<path d="M3347 987 c-3 -8 3 -13 17 -14 11 0 15 1 8 4 -6 3 -10 9 -6 14 3 5 1
9 -4 9 -6 0 -12 -6 -15 -13z"/>
<path d="M6230 983 c8 -3 22 -11 30 -17 13 -10 13 -9 1 7 -7 9 -21 17 -30 16
-13 0 -14 -1 -1 -6z"/>
<path d="M3470 925 c0 -8 2 -15 4 -15 2 0 6 7 10 15 3 8 1 15 -4 15 -6 0 -10
-7 -10 -15z"/>
<path d="M6116 918 c3 -4 0 -8 -7 -8 -7 0 -10 -2 -7 -5 7 -7 38 5 38 14 0 4
-7 8 -15 8 -8 0 -12 -4 -9 -9z"/>
<path d="M5981 844 c0 -11 3 -14 6 -6 3 7 2 16 -1 19 -3 4 -6 -2 -5 -13z"/>
<path d="M3596 838 c3 -5 10 -6 15 -3 13 9 11 12 -6 12 -8 0 -12 -4 -9 -9z"/>
<path d="M3716 787 c3 -10 9 -15 12 -12 3 3 0 11 -7 18 -10 9 -11 8 -5 -6z"/>
<path d="M5610 680 c0 -5 5 -10 10 -10 6 0 10 5 10 10 0 6 -4 10 -10 10 -5 0
-10 -4 -10 -10z"/>
<path d="M3990 659 c0 -5 5 -7 10 -4 6 3 10 8 10 11 0 2 -4 4 -10 4 -5 0 -10
-5 -10 -11z"/>
<path d="M5486 618 c3 -5 10 -6 15 -3 13 9 11 12 -6 12 -8 0 -12 -4 -9 -9z"/>
<path d="M4130 605 c0 -5 5 -17 10 -25 5 -8 10 -10 10 -5 0 6 -5 17 -10 25 -5
8 -10 11 -10 5z"/>
<path d="M5475 600 c3 -6 1 -10 -6 -10 -7 0 -10 -3 -6 -6 3 -3 13 -2 22 4 16
8 16 9 1 15 -10 4 -15 3 -11 -3z"/>
<path d="M4236 518 c3 -5 10 -6 15 -3 13 9 11 12 -6 12 -8 0 -12 -4 -9 -9z"/>
<path d="M5231 484 c0 -11 3 -14 6 -6 3 7 2 16 -1 19 -3 4 -6 -2 -5 -13z"/>
<path d="M4356 467 c3 -10 9 -15 12 -12 3 3 0 11 -7 18 -10 9 -11 8 -5 -6z"/>
<path d="M5210 471 c0 -6 4 -13 10 -16 6 -3 7 1 4 9 -7 18 -14 21 -14 7z"/>
<path d="M5080 410 c6 -11 13 -20 16 -20 2 0 0 9 -6 20 -6 11 -13 20 -16 20
-2 0 0 -9 6 -20z"/>
<path d="M4948 363 c7 -3 16 -2 19 1 4 3 -2 6 -13 5 -11 0 -14 -3 -6 -6z"/>
<path d="M4976 353 c-6 -14 -5 -15 5 -6 7 7 10 15 7 18 -3 3 -9 -2 -12 -12z"/>
<path d="M4630 339 c0 -5 5 -7 10 -4 6 3 10 8 10 11 0 2 -4 4 -10 4 -5 0 -10
-5 -10 -11z"/>
<path d="M4745 300 c-2 -3 5 -6 15 -7 11 -1 22 2 24 5 3 4 -4 8 -15 8 -11 0
-22 -3 -24 -6z"/>
<path d="M4797 293 c-13 -12 -7 -23 11 -22 10 0 12 3 4 6 -6 2 -10 9 -6 14 6
10 0 12 -9 2z"/>
<path d="M4750 270 c8 -5 20 -10 25 -10 6 0 3 5 -5 10 -8 5 -19 10 -25 10 -5
0 -3 -5 5 -10z"/>
</g>
</svg>
